HIERARCHY
ROOT Hips
{
	OFFSET 0.00000 0.00000 0.00000
	CHANNELS 6 Xposition Yposition Zposition Zrotation Yrotation Xrotation 
	JOINT LHipJoint
	{
		OFFSET 0 0 0
		CHANNELS 3 Zrotation Yrotation Xrotation
		JOINT LeftUpLeg
		{
			OFFSET 1.64577 -1.42384 0.94276
			CHANNELS 3 Zrotation Yrotation Xrotation
			JOINT LeftLeg
			{
				OFFSET 2.11538 -5.81197 0.00000
				CHANNELS 3 Zrotation Yrotation Xrotation
				JOINT LeftFoot
				{
					OFFSET 2.36541 -6.49893 0.00000
					CHANNELS 3 Zrotation Yrotation Xrotation
					JOINT LeftToeBase
					{
						OFFSET 0.17759 -0.48793 1.73865
						CHANNELS 3 Zrotation Yrotation Xrotation
						End Site
						{
							OFFSET 0.00000 -0.00000 0.91205
						}
					}
				}
			}
		}
	}
	JOINT RHipJoint
	{
		OFFSET 0 0 0
		CHANNELS 3 Zrotation Yrotation Xrotation
		JOINT RightUpLeg
		{
			OFFSET -1.43750 -1.42384 0.94276
			CHANNELS 3 Zrotation Yrotation Xrotation
			JOINT RightLeg
			{
				OFFSET -2.10480 -5.78291 0.00000
				CHANNELS 3 Zrotation Yrotation Xrotation
				JOINT RightFoot
				{
					OFFSET -2.34880 -6.45329 0.00000
					CHANNELS 3 Zrotation Yrotation Xrotation
					JOINT RightToeBase
					{
						OFFSET -0.22842 -0.62757 1.80469
						CHANNELS 3 Zrotation Yrotation Xrotation
						End Site
						{
							OFFSET -0.00000 -0.00000 0.95886
						}
					}
				}
			}
		}
	}
	JOINT LowerBack
	{
		OFFSET 0 0 0
		CHANNELS 3 Zrotation Yrotation Xrotation
		JOINT Spine
		{
			OFFSET 0.06217 1.93758 -0.49272
			CHANNELS 3 Zrotation Yrotation Xrotation
			JOINT Spine1
			{
				OFFSET -0.03114 2.03621 -0.05830
				CHANNELS 3 Zrotation Yrotation Xrotation
				JOINT Neck
				{
					OFFSET 0 0 0
					CHANNELS 3 Zrotation Yrotation Xrotation
					JOINT Neck1
					{
						OFFSET 0.04421 1.41010 0.26562
						CHANNELS 3 Zrotation Yrotation Xrotation
						JOINT Head
						{
							OFFSET -0.13407 1.43847 0.06181
							CHANNELS 3 Zrotation Yrotation Xrotation
							End Site
							{
								OFFSET -0.04980 1.45844 -0.00689
							}
						}
					}
				}
				JOINT LeftShoulder
				{
					OFFSET 0 0 0
					CHANNELS 3 Zrotation Yrotation Xrotation
					JOINT LeftArm
					{
						OFFSET 2.18382 1.47753 -0.35694
						CHANNELS 3 Zrotation Yrotation Xrotation
						JOINT LeftForeArm
						{
							OFFSET 5.05460 -0.00000 0.00000
							CHANNELS 3 Zrotation Yrotation Xrotation
							JOINT LeftHand
							{
								OFFSET 3.39013 -0.00000 0.00000
								CHANNELS 3 Zrotation Yrotation Xrotation
								JOINT LeftFingerBase
								{
									OFFSET 0 0 0
									CHANNELS 3 Zrotation Yrotation Xrotation
									JOINT LeftHandIndex1
									{
										OFFSET 0.57242 -0.00000 -0.00000
										CHANNELS 3 Zrotation Yrotation Xrotation
										End Site
										{
											OFFSET 0.46150 -0.00000 -0.00000
										}
									}
								}
								JOINT LThumb
								{
									OFFSET 0 0 0
									CHANNELS 3 Zrotation Yrotation Xrotation
									End Site
									{
										OFFSET 0.46855 -0.00000 0.46855
									}
								}
							}
						}
					}
				}
				JOINT RightShoulder
				{
					OFFSET 0 0 0
					CHANNELS 3 Zrotation Yrotation Xrotation
					JOINT RightArm
					{
						OFFSET -2.06033 1.72839 -0.47437
						CHANNELS 3 Zrotation Yrotation Xrotation
						JOINT RightForeArm
						{
							OFFSET -5.07010 -0.00000 0.00000
							CHANNELS 3 Zrotation Yrotation Xrotation
							JOINT RightHand
							{
								OFFSET -3.14957 -0.00000 -0.00000
								CHANNELS 3 Zrotation Yrotation Xrotation
								JOINT RightFingerBase
								{
									OFFSET 0 0 0
									CHANNELS 3 Zrotation Yrotation Xrotation
									JOINT RightHandIndex1
									{
										OFFSET -0.71819 -0.00000 -0.00000
										CHANNELS 3 Zrotation Yrotation Xrotation
										End Site
										{
											OFFSET -0.57902 -0.00000 -0.00000
										}
									}
								}
								JOINT RThumb
								{
									OFFSET 0 0 0
									CHANNELS 3 Zrotation Yrotation Xrotation
									End Site
									{
										OFFSET -0.58786 -0.00000 0.58786
									}
								}
							}
						}
					}
				}
			}
		}
	}
}
MOTION
Frames: 7
Frame Time: .0083333
5.4098 15.0028 2.3371 -178.3610 -27.7723 172.7460 0.0000 0.0000 0.0000 -14.8920 -5.9827 -7.5015 3.7739 11.8533 35.2151 1.1740 6.4532 -23.7450 1.5350 -7.8217 -22.1737 0.0000 0.0000 0.0000 22.0680 4.3969 -10.0770 -4.0997 -12.2919 36.7727 -1.1485 -14.3266 -29.9147 -2.6000 10.0175 -29.0334 -0.4318 2.6571 14.9244 -3.6324 2.0102 10.4043 -3.8512 0.4939 2.7976 7.9336 5.3628 11.9617 -3.0802 7.8986 0.1686 -2.7515 3.9281 -1.5586 -0.0000 0.0000 0.0000 -36.6541 -10.8809 -24.8827 129.8860 -53.0414 -93.7348 -0.0000 -0.0000 5.8804 49.5446 3.2359 3.7872 -7.1250 0.0000 -0.0000 18.7762 34.4413 -5.0980 -0.0000 0.0000 0.0000 54.6181 20.2482 -17.1104 -120.7724 56.1006 -86.3008 0.0000 -0.0000 -6.5710 -56.1625 21.8845 -29.0741 7.1250 -0.0000 -0.0000 -16.0884 4.6010 -18.0283
5.4104 15.0028 2.3316 -178.2750 -27.8197 172.7070 0.0000 0.0000 0.0000 -14.8507 -6.1351 -7.4509 3.7788 11.8601 35.2388 1.1689 6.6201 -23.8142 1.5377 -7.8283 -22.1939 0.0000 0.0000 0.0000 22.1780 4.3852 -10.0307 -4.0948 -12.2855 36.7496 -1.1602 -14.3274 -29.9937 -2.5602 9.9466 -28.8040 -0.4791 2.6686 14.8845 -3.6079 2.0358 10.3332 -3.8001 0.5093 2.7398 7.9607 5.2730 11.9368 -2.7578 7.7757 0.4076 -2.6352 3.8555 -1.4928 -0.0000 -0.0000 0.0000 -37.0222 -10.7595 -24.1553 129.3006 -53.2737 -93.2663 -0.0000 -0.0000 6.5777 48.6285 3.6681 4.1546 -7.1250 0.0000 -0.0000 18.1463 35.0170 -4.6442 -0.0000 -0.0000 0.0000 55.3914 20.1551 -16.5053 -120.3208 56.2238 -85.9257 0.0000 -0.0000 -6.3974 -56.1483 22.2043 -29.3976 7.1250 -0.0000 -0.0000 -15.9892 5.0277 -18.0183
5.4143 15.0031 2.3260 -178.1110 -27.9187 172.6630 0.0000 0.0000 0.0000 -14.7107 -6.3419 -7.4278 3.7779 11.8589 35.2346 1.1805 6.6407 -23.9222 1.4784 -7.6827 -21.7544 0.0000 0.0000 0.0000 22.3727 4.4542 -9.9492 -4.0754 -12.2600 36.6581 -1.2074 -14.2233 -30.2095 -2.4207 9.6923 -27.9860 -0.5454 2.6079 14.7637 -3.5479 1.9707 10.2722 -3.6872 0.4791 2.7269 7.9636 5.2591 11.7879 -2.4991 7.7391 0.6782 -2.5326 3.8300 -1.3878 0.0000 -0.0000 0.0000 -37.3059 -10.6667 -23.5820 128.6267 -53.5346 -92.7252 -0.0000 -0.0000 7.4292 48.5963 3.9764 4.4969 -7.1250 0.0000 -0.0000 18.2031 35.4568 -4.4551 0.0000 -0.0000 0.0000 56.0920 20.2239 -15.7546 -119.9120 56.3333 -85.5857 0.0000 -0.0000 -6.0865 -56.1275 22.1733 -29.3458 7.1250 -0.0000 -0.0000 -15.9869 4.9729 -18.0013
5.4193 15.0060 2.3190 -178.0730 -28.0206 172.6570 0.0000 0.0000 0.0000 -14.6838 -6.5140 -7.3683 3.7746 11.8542 35.2182 1.2022 6.5208 -24.0183 1.3650 -7.3947 -20.8902 0.0000 0.0000 0.0000 22.4557 4.5489 -9.7962 -4.0426 -12.2169 36.5038 -1.2367 -14.2236 -30.4011 -2.3019 9.4684 -27.2718 -0.6623 2.6190 14.6232 -3.5341 1.9916 10.2218 -3.6048 0.4895 2.7416 8.1381 5.1706 11.6637 -2.3740 7.6286 0.8551 -2.5073 3.7718 -1.3122 -0.0000 0.0000 0.0000 -37.3723 -10.7732 -22.9386 127.9288 -53.7975 -92.1630 -0.0000 -0.0000 8.0097 48.5513 4.4040 4.9695 -7.1250 0.0000 -0.0000 18.2817 36.0652 -4.1910 -0.0000 0.0000 0.0000 56.6804 20.1852 -15.1683 -119.6414 56.4047 -85.3604 0.0000 -0.0000 -5.7438 -55.9986 22.2666 -29.3246 7.1250 -0.0000 -0.0000 -15.8903 5.0216 -17.8963
5.4230 15.0113 2.3134 -178.0390 -28.1204 172.6210 0.0000 0.0000 0.0000 -14.6662 -6.5866 -7.2920 3.7661 11.8424 35.1768 1.1942 6.5660 -23.9836 1.3995 -7.4836 -21.1563 0.0000 0.0000 0.0000 22.5420 4.5872 -9.6318 -4.0012 -12.1620 36.3076 -1.1785 -14.6094 -30.3768 -2.3733 9.6038 -27.7030 -0.7428 2.6394 14.5670 -3.5109 2.0247 10.1633 -3.5367 0.5067 2.7052 8.2159 5.0745 11.6512 -2.3025 7.5130 0.8199 -2.4944 3.7113 -1.3282 -0.0000 0.0000 0.0000 -37.3608 -10.9694 -22.3272 127.3496 -54.0101 -91.6950 -0.0000 -0.0000 8.2267 48.0145 5.2032 5.7543 -7.1250 0.0000 -0.0000 18.0420 37.1576 -3.6263 -0.0000 0.0000 0.0000 57.0450 20.0688 -14.5393 -119.4730 56.4487 -85.2201 0.0000 -0.0000 -5.6356 -55.7050 22.2661 -29.0550 7.1250 -0.0000 -0.0000 -15.7311 4.8452 -17.6581
5.4262 15.0177 2.3111 -177.8140 -28.2201 172.5170 0.0000 0.0000 0.0000 -14.4371 -6.5943 -7.2748 3.7476 11.8167 35.0867 1.1813 6.5893 -23.8945 1.4647 -7.6485 -21.6515 0.0000 0.0000 0.0000 22.8073 4.6026 -9.4966 -3.9557 -12.1013 36.0912 -1.1258 -14.9201 -30.3247 -2.4269 9.7038 -28.0229 -0.6435 2.6085 14.5574 -3.4279 2.0132 10.0961 -3.5027 0.5109 2.6375 8.1422 5.0317 11.5456 -2.1940 7.4454 0.7797 -2.4399 3.6747 -1.3331 -0.0000 -0.0000 0.0000 -37.3581 -11.2792 -21.8563 126.8319 -54.1960 -91.2756 -0.0000 -0.0000 8.4937 48.1124 5.3509 5.9363 -7.1250 0.0000 -0.0000 18.1651 37.3749 -3.5519 -0.0000 -0.0000 0.0000 57.3700 19.9634 -13.5055 -119.3026 56.4929 -85.0780 0.0000 -0.0000 -4.2273 -56.7364 19.8168 -27.3306 7.1250 -0.0000 -0.0000 -16.9858 2.0688 -18.4045
5.4297 15.0247 2.3099 -177.6150 -28.3222 172.4580 0.0000 0.0000 0.0000 -14.2230 -6.6140 -7.2852 3.7213 11.7800 34.9580 1.1825 6.4733 -23.8279 1.4393 -7.5848 -21.4600 0.0000 0.0000 0.0000 23.0299 4.6069 -9.3719 -3.9051 -12.0331 35.8490 -1.1358 -14.9131 -30.3833 -2.3420 9.5447 -27.5147 -0.5455 2.5580 14.5297 -3.3745 1.9766 10.0220 -3.4958 0.5034 2.5718 8.1180 5.0123 11.3391 -2.1106 7.4052 0.7992 -2.3973 3.6540 -1.2963 -0.0000 0.0000 0.0000 -37.2810 -11.6573 -21.5112 126.2696 -54.3935 -90.8190 -0.0000 -0.0000 8.8547 48.0101 5.2610 5.8167 -7.1250 0.0000 -0.0000 18.0534 37.2388 -3.5912 -0.0000 0.0000 0.0000 57.6064 19.9368 -13.0271 -119.2960 56.4946 -85.0725 0.0000 -0.0000 -4.0356 -56.9310 19.2580 -26.8642 7.1250 -0.0000 -0.0000 -17.2491 1.3874 -18.5135
